{"title":"Finding Fanny (2014) [1CD] PreDVD Rip Xvid Mp3 TeamTNT Exclusive","uid":11018572,"size":735412427,"categoryP":"video","categoryS":"movies","magnet":"?xt=urn:btih:761da6819dfb0c4c180714a6fcdb39573709e5be&amp;dn=Finding+Fanny+%282014%29+%5B1CD%5D+PreDVD+Rip+Xvid+Mp3+TeamTNT+Exclusive&amp;tr=udp%3A%2F%2Ftracker.openbittorrent.com%3A80&amp;tr=udp%3A%2F%2Fopen.demonii.com%3A1337&amp;tr=udp%3A%2F%2Ftracker.coppersurfer.tk%3A6969&amp;tr=udp%3A%2F%2Fexodus.desync.com%3A6969","seeders":2,"leechers":0,"uploader":"inovai","files":15,"time":1410539306,"description":"Finding Fanny(2014)[1CD] PreDVD Rip Xvid Mp3 TEAMTNT Exclusive\n\nCover:\n &lt;a href=&quot;\nhttp://forum.primetimeshow.in/viewtopic.php?f=7&amp;t=670&quot; rel=&quot;nofollow&quot; target=&quot;_NEW&quot;&gt;\nhttp://forum.primetimeshow.in/viewtopic.php?f=7&amp;t=670&lt;/a&gt;\n\nMovie:............Finding Fanny\nSource: ..........PreDVD @ TeamTNT\nYear:.............2014[/color]\n\nGeneral\nComplete name : D:Finding Fanny.avi\nFormat : AVI\nFormat/Info : Audio Video Interleave\nFile size : 695 MiB\nDuration : 1h 40mn\nOverall bit rate : 964 Kbps\n\nVideo\nID : 0\nFormat : MPEG-4 Visual\nFormat profile : Advanced Simple@L5\nFormat settings, BVOP : 2\nFormat settings, QPel : No\nFormat settings, GMC : No warppoints\nFormat settings, Matrix : Default (H.263)\nCodec ID : XVID\nCodec ID/Hint : XviD\nDuration : 1h 40mn\nBit rate : 861 Kbps\nWidth : 608 pixels\nHeight : 288 pixels\nDisplay aspect ratio : 2.111\nFrame rate : 29.970 fps\nColor space : YUV\nChroma subsampling : 4:2:0\nBit depth : 8 bits\nScan type : Progressive\nCompression mode : Lossy\nBits/(Pixel*Frame) : 0.164\nStream size : 621 MiB (89%)\nWriting library : XviD 1.2.1 (UTC 2008-12-04)\n\nAudio\nID : 1\nFormat : MPEG Audio\nFormat version : Version 1\nFormat profile : Layer 3\nMode : Joint stereo\nMode extension : MS Stereo\nCodec ID : 55\nCodec ID/Hint : MP3\nDuration : 1h 40mn\nBit rate mode : Constant\nBit rate : 96.0 Kbps\nChannel(s) : 2 channels\nSampling rate : 32.0 KHz\nCompression mode : Lossy\nStream size : 69.2 MiB (10%)\nAlignment : Aligned on interleaves\nInterleave, duration : 133 ms (4.00 video frames)\nInterleave, preload duration : 216 ms\nTitle : Finding Fanny T01 2_0ch 192Kbps DELAY 0ms\nWriting library : LAME3.99r\nEncoding settings : -m j -V 4 -q 2 -lowpass 15.1 -b 96\n\nThanks to TEAMTNT!!\n\nSeed n Enjoy!!","torrent":{"xt":"urn:btih:761da6819dfb0c4c180714a6fcdb39573709e5be","amp;dn":"Finding+Fanny+%282014%29+%5B1CD%5D+PreDVD+Rip+Xvid+Mp3+TeamTNT+Exclusive","amp;tr":["udp%3A%2F%2Ftracker.openbittorrent.com%3A80","udp%3A%2F%2Fopen.demonii.com%3A1337","udp%3A%2F%2Ftracker.coppersurfer.tk%3A6969","udp%3A%2F%2Fexodus.desync.com%3A6969"],"infoHash":"761da6819dfb0c4c180714a6fcdb39573709e5be","infoHashBuffer":{"type":"Buffer","data":[118,29,166,129,157,251,12,76,24,7,20,166,252,219,57,87,55,9,229,190]},"announce":[],"urlList":[]}}